<svg version="1.1" xmlns="http://www.w3.org/2000/svg" xmlns:xlink="http://www.w3.org/1999/xlink" width="270.54366" height="356.93126" viewBox="0,0,270.54366,356.93126"><g transform="translate(-104.72817,-1.53437)"><g data-paper-data="{&quot;isPaintingLayer&quot;:true}" fill-rule="nonzero" stroke="none" stroke-width="1" stroke-linecap="butt" stroke-linejoin="miter" stroke-miterlimit="10" stroke-dasharray="" stroke-dashoffset="0" style="mix-blend-mode: normal"><path d="M177.17395,358.46563c2.02041,-14.65939 4.06438,-29.39484 6.97911,-43.95598c2.70574,-13.51707 6.43794,-26.81834 12.3463,-39.79321c-3.91478,-1.42552 -7.74043,-0.51259 -11.4443,-0.77562c-4.97762,-0.3535 -6.02231,-2.12087 -3.60508,-6.40553c3.09502,-5.48602 6.27548,-10.90426 11.2396,-14.6398c-0.27321,-2.35505 -2.07226,-2.61303 -3.23509,-3.45743c-5.83117,-4.23428 -10.62538,-9.32421 -13.22977,-16.15416c-1.0763,-2.82261 -2.97575,-4.51987 -5.73472,-5.53496c-5.92917,-2.18143 -11.47021,-5.18981 -16.89095,-8.38472c-1.77117,-1.0439 -3.12958,-1.06278 -5.09673,-0.50741c-8.34561,2.35614 -16.84358,3.4151 -25.46028,1.48493c-1.47828,-0.33113 -2.95682,-0.84676 -4.30549,-1.53238c-2.85121,-1.44947 -3.5283,-3.35383 -1.59451,-6.31417c4.54656,-6.96008 8.02755,-14.49303 11.36401,-22.10069c1.49069,-3.39902 1.22632,-5.32773 -2.53806,-7.17997c-10.61137,-5.22123 -17.45793,-13.80297 -20.58587,-25.26033c-1.69891,-6.22291 -0.21353,-7.8067 5.94195,-6.29743c8.17484,2.00437 16.39481,3.69077 24.80902,4.32407c0.69258,-2.38564 -0.9353,-3.46888 -1.80119,-4.76315c-14.41673,-21.54902 -22.29317,-45.17594 -21.17529,-71.18643c1.19031,-27.69604 9.56745,-53.02551 27.47614,-74.70242c3.96947,-4.8047 5.38665,-4.72963 9.82189,-0.16172c20.53011,21.14424 40.30453,42.9628 58.76747,65.94343c3.55237,4.42158 6.09928,0.22939 9.43247,-0.34758c-1.66154,-5.69213 -5.4441,-9.94532 -7.2906,-15.12162c-1.81161,-5.0785 -3.26247,-10.19017 -3.27266,-15.6409c-0.00737,-3.94658 1.99788,-5.72766 5.77779,-5.29857c15.99952,1.81622 31.20659,6.11202 45.12797,14.48052c7.40575,4.45177 14.29517,9.589 20.37621,15.68225c2.90807,2.91388 4.54166,2.93231 7.18967,-0.3202c12.0264,-14.7718 24.95917,-28.71715 38.93245,-41.69033c7.65855,-7.11041 15.87347,-13.53681 23.99885,-20.08001c2.73433,-2.20191 4.65378,-1.29098 6.46358,1.31889c6.02436,8.68747 9.9914,18.34179 12.89722,28.38856c4.36844,15.1038 6.84194,30.52796 6.35642,46.32931c-0.77027,25.06705 -7.26191,48.14147 -23.56171,67.81289c-0.28207,0.34043 -0.45096,0.7746 -0.96018,1.67143c4.75948,0.24425 9.28721,-0.42877 13.69848,0.76637c5.6513,1.53112 6.51846,3.1457 3.62212,8.40327c-4.27807,7.76575 -10.45871,13.95128 -16.78802,20.0438c-5.45582,5.25164 -5.92127,3.39838 -0.6396,9.88357c5.05599,6.20806 9.58057,12.71767 12.8066,20.13064c1.61118,3.70218 0.66296,5.46814 -3.02541,6.34178c-12.29379,2.91193 -24.59965,5.56963 -37.26354,2.24135c-1.30246,-0.34227 -2.45488,0.02544 -3.5292,0.64036c-8.52324,4.87869 -17.19044,9.4199 -27.85328,11.54823c20.35083,41.06977 30.33458,84.17198 31.69543,129.74549c-1.59651,0.42558 -3.17746,0.42558 -5.15354,0.42558c-1.44285,-12.84029 -1.70998,-25.80267 -3.69514,-38.49636c-4.63233,-29.62083 -12.39033,-58.41518 -25.82961,-85.42557c-1.35783,-2.72895 -2.58821,-5.60281 -6.57544,-5.43285c-1.79644,0.07663 -3.2764,-1.07472 -3.1053,-3.21627c0.16438,-2.05758 1.8289,-2.25179 3.3994,-2.31055c12.82986,-0.48043 24.16983,-5.30075 34.86299,-11.97158c2.54574,-1.58815 5.04481,-1.53277 7.91613,-0.87549c10.92211,2.50026 21.56661,0.44708 32.55187,-2.10352c-3.84704,-8.49089 -9.06336,-15.4088 -14.99575,-21.85084c-4.51622,-4.90422 -4.442,-4.86648 0.31359,-9.25455c5.97925,-5.51713 12.06707,-10.94475 16.86612,-17.59524c1.06582,-1.47706 2.31793,-2.89105 2.31052,-5.48071c-6.07116,-1.27849 -12.00755,-0.09364 -17.91919,1.27039c-2.0441,0.47165 -4.28483,1.92455 -5.73235,-0.6793c-1.3177,-2.37033 0.85354,-3.51603 2.26656,-4.88237c12.7027,-12.28273 20.79246,-27.10772 24.94378,-44.27608c6.47996,-26.79875 3.98491,-53.04879 -4.67258,-78.85185c-2.19283,-6.53559 -4.38774,-13.3747 -9.73397,-18.87225c-8.64716,6.89332 -16.91894,13.68395 -24.74354,21.02306c-13.0092,12.20203 -24.97541,25.35616 -36.38718,39.05509c-2.59403,3.11394 -2.77316,5.31195 -0.04925,8.20709c1.75926,1.86986 5.11943,4.42249 2.07248,6.79205c-3.02707,2.35408 -4.6102,-1.73068 -6.23954,-3.65241c-17.70562,-20.88273 -39.4258,-34.76823 -66.91569,-38.70583c-1.65958,-0.23771 -3.33218,-0.55759 -5.45365,0.3192c-0.3605,5.16564 1.50848,10.03951 3.4875,14.71782c1.71927,4.06427 4.33415,7.74525 6.4859,11.63287c1.07404,1.94045 2.80132,2.02501 4.71404,2.15952c1.8497,0.13008 4.53304,-0.39775 4.71607,2.42327c0.20444,3.15111 -2.61373,3.01513 -4.64802,3.09764c-12.42478,0.50391 -22.5651,6.33499 -32.12922,13.55908c-0.34074,0.25737 -0.5314,0.71343 -0.84877,1.15605c1.50166,1.31793 3.27309,0.8256 4.83811,0.78891c11.93739,-0.27994 23.97334,1.30721 35.76956,-1.82004c1.73051,-0.45877 3.11525,0.1005 3.45729,2.01803c0.33109,1.85621 -0.76555,2.78085 -2.42948,3.32907c-4.57524,1.50743 -9.36323,1.79638 -14.07856,2.17134c-10.74253,0.85423 -21.49294,0.39818 -32.17458,-1.0234c-1.96817,-0.26194 -4.72024,-0.04897 -5.25788,-2.81894c-0.45327,-2.33525 1.69441,-3.41444 3.17928,-4.6813c5.2471,-4.47673 10.904,-8.39317 17.47034,-12.14639c-19.19276,-23.63929 -39.26846,-45.84524 -60.55482,-67.53823c-6.72296,6.6403 -10.89838,14.26615 -14.69233,22.10542c-7.94637,16.41926 -11.89653,33.87171 -12.10122,52.03181c-0.29134,25.84745 7.52673,49.18169 22.96145,69.96813c1.55301,2.09149 4.7676,4.02753 3.2629,7.04739c-1.59159,3.19425 -5.2056,1.80961 -7.98885,1.91788c-6.80351,0.26471 -13.45404,-0.85391 -20.03626,-2.527c-1.728,-0.43922 -3.43687,-1.40634 -5.82832,-0.64288c3.33638,9.82617 9.3623,17.00423 18.93088,21.04835c7.03199,2.97205 7.15842,3.32884 4.40416,10.55989c-2.73738,7.18674 -5.97659,14.12846 -9.88823,20.73926c-2.02238,3.41791 -0.84254,4.53907 2.71724,5.0218c6.72279,0.9116 13.16913,-0.44449 19.53589,-2.13697c3.35843,-0.89275 6.13136,-0.70388 9.17638,1.09062c16.78664,9.8929 34.67973,16.31117 54.40927,16.65555c2.13662,0.03729 4.38718,0.4522 4.29622,3.02572c-0.09116,2.57895 -2.48023,2.68305 -4.53009,2.81175c-7.63852,0.47947 -14.87827,-1.72687 -22.21719,-3.26879c-1.76946,-0.37179 -3.53882,-0.74415 -6.19162,-1.302c2.68414,6.35431 6.95475,10.28155 11.99933,13.47708c8.86105,5.61317 8.88479,5.57008 1.07245,12.33307c-3.14781,2.72501 -5.74869,5.8481 -7.39324,10.04492c4.03928,1.58596 7.7012,0.14783 11.3964,-0.4269c4.63308,-0.72054 6.09748,0.80835 4.22046,4.90785c-7.12668,15.56488 -11.44311,31.90526 -14.56999,48.68647c-2.24103,12.02708 -4.22926,24.06293 -5.43321,36.6523c-1.88116,0.42068 -3.76395,0.42068 -6.05019,0.42068z" fill="#000000"/><path d="M154.47638,136.5693c-2.43551,-2.84349 -1.30701,-4.42088 1.55689,-5.09506c2.08167,-0.49001 4.2497,-0.83372 6.38242,-0.85112c16.28063,-0.13281 32.57223,-0.70904 48.82133,0.90554c4.88881,0.48577 5.34927,1.44499 3.14496,6.20732c-0.95127,2.0552 -0.24021,4.23307 -0.16414,6.36188c0.36314,10.16231 0.05674,20.22413 -4.27783,29.72152c-2.49625,5.46945 -7.21641,9.11736 -11.86516,8.74266c-6.00566,-0.48408 -9.18663,-4.53859 -11.23495,-9.62682c-3.02796,-7.52178 -3.61344,-15.48604 -3.76115,-23.48775c-0.07905,-4.28222 -0.01404,-8.56709 -0.01404,-13.33908c-4.87748,-0.66473 -9.84424,-0.19116 -14.80516,0.3361c-1.40553,0.14937 -2.0268,1.21902 -2.48661,2.42791c-3.45479,9.08304 -6.38825,18.33801 -5.1067,28.18124c0.4625,3.5523 2.32424,6.94747 3.72207,10.34245c0.71089,1.7266 1.23052,3.35964 -0.68608,4.41106c-1.95032,1.06989 -3.16355,-0.34073 -4.0909,-1.84966c-5.15721,-8.39151 -4.79763,-17.5507 -3.71963,-26.82046c0.62014,-5.33268 2.99912,-10.23075 4.22568,-15.66912c-2.08697,-0.28683 -3.71457,-0.51052 -5.64101,-0.89859z" fill="#000000"/><path d="M290.75619,161.35102c-1.40153,3.99107 -2.89004,7.47774 -5.56558,10.39441c-6.25106,6.81445 -14.01909,6.52554 -19.35332,-0.95743c-6.03774,-8.4699 -6.94483,-18.12499 -6.00984,-28.09893c0.314,-3.34973 1.38575,-6.65667 1.44565,-9.99511c0.08264,-4.60488 2.69521,-5.68779 6.518,-5.85042c5.21221,-0.22179 10.41753,-0.62259 15.63083,-0.79831c10.8927,-0.36718 21.78825,-0.6547 32.68383,-0.92709c1.52299,-0.03808 3.07566,0.06792 4.57243,0.33953c1.29512,0.23501 2.23357,1.13587 2.24959,2.54979c0.0188,1.66111 -1.07504,2.41208 -2.58041,2.72474c-1.76431,0.36642 -3.7069,-0.34652 -5.72052,1.12006c2.12436,7.47954 4.52825,15.05133 4.7592,23.07549c0.164,5.69792 -0.14356,11.35503 -0.77519,16.99393c-0.21412,1.9115 -0.70384,4.39 -3.42947,3.98308c-2.39374,-0.35739 -2.24502,-2.65284 -2.10728,-4.47843c0.71646,-9.49534 0.86656,-18.94321 -0.94885,-28.37393c-0.6809,-3.53727 -2.32261,-6.64042 -3.47803,-9.95765c-0.51753,-1.48588 -1.70281,-1.94744 -3.21313,-2.15081c-12.32892,-1.66003 -13.1989,-0.89353 -13.07761,11.32959c0.06231,6.27967 0.51196,12.60407 -1.60033,19.07752z" fill="#000000"/><path d="M238.78001,203.79619c-2.7567,-1.01103 -4.36637,0.65481 -6.19457,1.72413c-6.40972,3.74913 -12.90845,6.7315 -20.25179,2.21864c-1.18991,-0.73126 -2.36938,-1.3995 -3.15012,-2.60858c-0.81976,-1.26955 -1.22698,-2.53956 0.06346,-3.72121c1.04341,-0.95541 2.31285,-1.01459 3.36768,-0.14638c6.60487,5.43636 12.7938,2.72467 18.52369,-1.32254c3.3467,-2.3639 5.98772,-3.12638 9.9893,-1.29669c6.09104,2.78505 12.5524,2.52946 18.75375,-0.33785c1.25428,-0.57994 2.47585,-1.23087 3.73217,-1.80616c1.59641,-0.73107 3.07809,-0.59067 3.97957,1.04407c0.87008,1.57784 -0.20596,2.77833 -1.36919,3.47499c-5.58454,3.34453 -11.42863,6.08736 -18.18666,5.07886c-3.01968,-0.45062 -5.9559,-1.46037 -9.25729,-2.30125z" fill="#000000"/><path d="M161.36312,189.72064c2.15035,-0.8599 3.95296,-1.70997 5.8253,-2.35884c1.85505,-0.64289 3.83766,-0.72373 4.6732,1.46514c0.87972,2.30459 -0.85689,3.25362 -2.67317,3.99405c-3.81839,1.55662 -7.63025,3.12954 -11.43563,4.71772c-4.80456,2.00516 -5.84934,1.30325 -5.99579,-4.05274c-0.0204,-0.74618 -0.09329,-1.49092 -0.14121,-2.22577c-2.07404,-1.15051 -3.62455,0.20791 -5.28599,0.73493c-1.29723,0.4115 -2.46234,0.34103 -3.18529,-0.95494c-0.81419,-1.45956 -0.37861,-2.79941 0.99965,-3.52363c2.83844,-1.49146 5.70002,-3.00828 8.70398,-4.09464c2.68365,-0.97049 4.27956,0.45876 4.99478,3.17914c0.41304,1.57099 0.19908,4.09417 3.52016,3.11959z" fill="#d41325"/><path d="M303.20711,183.26501c5.0154,-2.66667 5.39257,-2.36217 7.08302,5.57035c2.543,-0.92842 4.09178,-3.07559 6.09943,-4.55718c1.44805,-1.06865 3.03175,-1.81074 4.47355,-0.12456c1.32178,1.54581 0.35345,2.9282 -0.81573,3.99442c-3.05006,2.78154 -6.13216,5.53428 -9.31642,8.15909c-1.25105,1.03125 -2.68007,2.31162 -4.54029,1.48282c-1.94795,-0.86791 -1.48714,-2.80001 -1.67465,-4.42436c-0.08373,-0.72525 -0.23208,-1.44304 -0.32415,-2.0009c-1.57829,-0.6657 -2.24176,0.36292 -3.05732,0.98049c-1.45154,1.09915 -3.07871,1.9217 -4.42688,0.16336c-1.30213,-1.69828 -0.10978,-3.21258 1.12713,-4.41839c1.64226,-1.60097 3.4032,-3.0802 5.3723,-4.82514z" fill="#d41325"/><path d="M223.46249,176.80137c3.73244,-0.10686 7.07122,-0.17004 10.40673,-0.09245c1.63694,0.03805 3.02721,0.71183 3.17641,2.5983c0.1465,1.85211 -1.0391,2.76113 -2.66981,3.12844c-3.26594,0.73558 -6.55494,1.38333 -9.91613,0.69425c-1.52867,-0.31341 -2.9768,-0.8758 -3.40182,-2.61082c-0.4353,-1.77702 0.47832,-2.88858 2.40462,-3.71772z" fill="#000000"/></g></g></svg>