<svg version="1.1" id="Layer_1" xmlns="http://www.w3.org/2000/svg" xmlns:xlink="http://www.w3.org/1999/xlink" x="0px" y="0px"
	 width="100%" viewBox="0 0 320 416" enable-background="new 0 0 320 416" xml:space="preserve">
<path fill="#000000" opacity="1.000000" stroke="none" 
	d="
M95.437500,417.000000 
	C97.628403,401.103607 99.844841,385.124725 103.005531,369.334869 
	C105.939590,354.677185 109.986725,340.253510 116.393654,326.183777 
	C112.148537,324.637970 108.000061,325.627930 103.983643,325.342712 
	C98.585999,324.959381 97.453148,323.042877 100.074356,318.396667 
	C103.430542,312.447723 106.879379,306.572266 112.262390,302.521515 
	C111.966125,299.967743 110.015266,299.687988 108.754311,298.772339 
	C102.431084,294.180756 97.232330,288.661316 94.408173,281.255035 
	C93.241051,278.194244 91.181320,276.353760 88.189537,275.253021 
	C81.760048,272.887512 75.751427,269.625275 69.873276,266.160767 
	C67.952652,265.028778 66.479614,265.008301 64.346466,265.610535 
	C55.296623,268.165497 46.081566,269.313812 36.737766,267.220764 
	C35.134743,266.861694 33.531445,266.302551 32.068966,265.559082 
	C28.977156,263.987305 28.242933,261.922241 30.339905,258.712097 
	C35.270119,251.164703 39.044846,242.996094 42.662846,234.746475 
	C44.279324,231.060638 43.992649,228.969177 39.910614,226.960632 
	C28.403820,221.298813 20.979530,211.992920 17.587639,199.568756 
	C15.745372,192.820740 17.356096,191.103302 24.030994,192.739929 
	C32.895653,194.913437 41.809258,196.742142 50.933483,197.428879 
	C51.684505,194.841934 49.919258,193.667282 48.980301,192.263794 
	C33.347042,168.896393 24.805964,143.275757 26.018164,115.070419 
	C27.308920,85.037292 36.392948,57.570435 55.812832,34.064362 
	C60.117264,28.854225 61.654026,28.935633 66.463524,33.888996 
	C88.726036,56.817455 110.169090,80.477142 130.189987,105.396957 
	C134.042114,110.191643 136.803940,105.645706 140.418396,105.020042 
	C138.616653,98.847595 134.514908,94.235504 132.512589,88.622414 
	C130.548111,83.115372 128.974823,77.572365 128.963776,71.661682 
	C128.955780,67.382072 131.130249,65.450706 135.229111,65.916000 
	C152.578720,67.885483 169.069016,72.543770 184.165131,81.618431 
	C192.195801,86.445854 199.666580,92.016579 206.260757,98.624001 
	C209.414215,101.783760 211.185654,101.803749 214.057114,98.276779 
	C227.098343,82.258484 241.122421,67.136383 256.274811,53.068481 
	C264.579620,45.358074 273.487732,38.389389 282.298767,31.294054 
	C285.263824,28.906338 287.345245,29.894135 289.307770,32.724239 
	C295.840485,42.144787 300.142273,52.613770 303.293304,63.508316 
	C308.030365,79.886620 310.712585,96.612328 310.186096,113.747047 
	C309.350830,140.929337 302.311401,165.950851 284.636169,187.282211 
	C284.330292,187.651367 284.147156,188.122177 283.594971,189.094681 
	C288.756073,189.359543 293.665863,188.629730 298.449371,189.925720 
	C304.577545,191.586044 305.517883,193.336868 302.377136,199.038086 
	C297.738068,207.459137 291.035889,214.166626 284.172485,220.773254 
	C278.256287,226.468048 277.751556,224.458405 283.478912,231.490829 
	C288.961548,238.222748 293.867920,245.281662 297.366180,253.320160 
	C299.113312,257.334747 298.085083,259.249725 294.085480,260.197083 
	C280.754303,263.354736 267.410034,266.236694 253.677521,262.627563 
	C252.265152,262.256409 251.015488,262.655151 249.850510,263.321960 
	C240.608047,268.612335 231.209488,273.536743 219.646881,275.844666 
	C241.714981,320.380035 252.541199,367.119354 254.016876,416.538513 
	C252.285645,417.000000 250.571289,417.000000 248.428467,417.000000 
	C246.863861,403.076202 246.574188,389.020020 244.421524,375.255188 
	C239.398300,343.134857 230.985657,311.910736 216.412323,282.621124 
	C214.939911,279.661896 213.605713,276.545532 209.282028,276.729828 
	C207.334000,276.812927 205.729156,275.564423 205.914688,273.242157 
	C206.092941,271.010956 207.897919,270.800354 209.600937,270.736633 
	C223.513428,270.215668 235.810303,264.988586 247.405777,257.754852 
	C250.166336,256.032684 252.876282,256.092743 255.989899,256.805481 
	C267.833649,259.516724 279.376373,257.290283 291.288605,254.524460 
	C287.116943,245.317078 281.460449,237.815414 275.027466,230.829773 
	C270.130157,225.511719 270.210632,225.552643 275.367523,220.794296 
	C281.851318,214.811615 288.452850,208.925995 293.656860,201.714310 
	C294.812622,200.112610 296.170380,198.579300 296.162354,195.771118 
	C289.578888,194.384750 283.141571,195.669571 276.731079,197.148712 
	C274.514496,197.660156 272.084686,199.235657 270.515015,196.412094 
	C269.086121,193.841751 271.440582,192.599365 272.972839,191.117737 
	C286.747437,177.798553 295.519836,161.722580 300.021454,143.105499 
	C307.048218,114.045380 304.342621,85.580276 294.954590,57.599865 
	C292.576721,50.512783 290.196594,43.096565 284.399231,37.135117 
	C275.022400,44.610123 266.052612,51.973763 257.567749,59.932171 
	C243.460785,73.163849 230.484833,87.427963 218.110092,102.282860 
	C215.297165,105.659561 215.102921,108.043045 218.056686,111.182495 
	C219.964401,113.210136 223.608109,115.978172 220.304047,118.547684 
	C217.021545,121.100410 215.304825,116.670967 213.537994,114.587074 
	C194.338318,91.942192 170.785309,76.884987 140.975739,72.615120 
	C139.176117,72.357353 137.362381,72.010483 135.061890,72.961250 
	C134.670975,78.562782 136.697662,83.847923 138.843674,88.921005 
	C140.708023,93.328232 143.543549,97.319824 145.876877,101.535500 
	C147.041550,103.639694 148.914581,103.731384 150.988708,103.877251 
	C152.994492,104.018303 155.904266,103.445938 156.102737,106.505005 
	C156.324432,109.922012 153.268448,109.774567 151.062500,109.864037 
	C137.589279,110.410469 126.593277,116.733597 116.222107,124.567276 
	C115.852615,124.846367 115.645866,125.340912 115.301712,125.820877 
	C116.930084,127.250023 118.850998,126.716148 120.548080,126.676353 
	C133.492783,126.372787 146.544373,128.093872 159.335999,124.702736 
	C161.212540,124.205254 162.714127,124.811714 163.085022,126.891052 
	C163.444046,128.903900 162.254868,129.906555 160.450531,130.501038 
	C155.489212,132.135666 150.297195,132.449005 145.183975,132.855606 
	C133.534958,133.781921 121.877388,133.287384 110.294395,131.745850 
	C108.160149,131.461807 105.175842,131.692749 104.592834,128.689041 
	C104.101318,126.156738 106.430222,124.986481 108.040390,123.612717 
	C113.730255,118.758224 119.864510,114.511299 126.984940,110.441376 
	C106.172630,84.807320 84.402878,60.727566 61.320297,37.204044 
	C54.030029,44.404678 49.502270,52.674023 45.388180,61.174789 
	C36.771267,78.979561 32.487782,97.904709 32.265816,117.597221 
	C31.949890,145.625763 40.427677,170.929031 57.164829,193.469498 
	C58.848888,195.737473 62.334736,197.836884 60.703068,201.111572 
	C58.977169,204.575363 55.058201,203.073883 52.040096,203.191284 
	C44.662487,203.478333 37.450756,202.265320 30.313108,200.451050 
	C28.439293,199.974762 26.586222,198.926041 23.992979,199.753922 
	C27.610897,210.409256 34.145306,218.193024 44.521305,222.578400 
	C52.146679,225.801239 52.283775,226.188141 49.297104,234.029373 
	C46.328739,241.822556 42.816185,249.350037 38.574467,256.518677 
	C36.381435,260.225006 37.660835,261.440765 41.520996,261.964233 
	C48.811081,262.952759 55.801380,261.482239 62.705391,259.646942 
	C66.347221,258.678864 69.354141,258.883667 72.656105,260.829590 
	C90.859253,271.557281 110.262230,278.517151 131.656616,278.890594 
	C133.973526,278.931030 136.414001,279.380951 136.315369,282.171631 
	C136.216522,284.968201 133.625854,285.081085 131.403015,285.220642 
	C123.119926,285.740570 115.269272,283.348053 107.311066,281.676025 
	C105.392288,281.272858 103.473633,280.869080 100.596977,280.264160 
	C103.507614,287.154663 108.138588,291.413300 113.608849,294.878479 
	C123.217621,300.965302 123.243362,300.918579 114.771797,308.252258 
	C111.358368,311.207214 108.538017,314.593842 106.754692,319.144806 
	C111.134819,320.864594 115.105743,319.305115 119.112762,318.681885 
	C124.136795,317.900543 125.724770,319.558441 123.689362,324.003876 
	C115.961304,340.882172 111.280640,358.601410 107.889908,376.798676 
	C105.459770,389.840637 103.303764,402.892120 101.998230,416.543823 
	C99.958336,417.000000 97.916664,417.000000 95.437500,417.000000 
z"/>
<path fill="#000000" opacity="1.000000" stroke="none" 
	d="
M70.824631,176.379318 
	C68.183609,173.295883 69.407333,171.585388 72.512894,170.854324 
	C74.770218,170.322968 77.121201,169.950256 79.433884,169.931381 
	C97.088333,169.787369 114.754669,169.162506 132.374924,170.913330 
	C137.676270,171.440094 138.175583,172.480255 135.785263,177.644440 
	C134.753723,179.873062 135.524780,182.234711 135.607269,184.543152 
	C136.001053,195.562988 135.668793,206.473862 130.968460,216.772675 
	C128.261566,222.703659 123.143105,226.659393 118.102074,226.253067 
	C111.589638,225.728134 108.140244,221.331497 105.919083,215.813904 
	C102.635612,207.657410 102.000725,199.021103 101.840553,190.344177 
	C101.754829,185.700607 101.825333,181.054169 101.825333,175.879501 
	C96.536278,175.158676 91.150398,175.672211 85.770866,176.243958 
	C84.246735,176.405930 83.573036,177.565842 83.074432,178.876740 
	C79.328110,188.726242 76.147118,198.762177 77.536812,209.436005 
	C78.038338,213.288055 80.057182,216.969727 81.572968,220.651184 
	C82.343849,222.523483 82.907326,224.294327 80.828995,225.434464 
	C78.714096,226.594635 77.398491,225.064987 76.392891,223.428726 
	C70.800499,214.329117 71.190422,204.397034 72.359383,194.345062 
	C73.031853,188.562393 75.611580,183.251007 76.941643,177.353729 
	C74.678566,177.042694 72.913628,176.800125 70.824631,176.379318 
z"/>
<path fill="#000000" opacity="1.000000" stroke="none" 
	d="
M218.604187,203.252197 
	C217.084396,207.580048 215.470276,211.360931 212.568970,214.523727 
	C205.790421,221.913208 197.366898,221.599915 191.582550,213.485504 
	C185.035324,204.300888 184.051697,193.831070 185.065582,183.015488 
	C185.406082,179.383102 186.568268,175.797104 186.633224,172.176956 
	C186.722839,167.183502 189.555862,166.009216 193.701233,165.832855 
	C199.353271,165.592346 204.997833,165.157730 210.651047,164.967178 
	C222.462906,164.569016 234.277863,164.257233 246.092850,163.961853 
	C247.744354,163.920563 249.428040,164.035507 251.051117,164.330032 
	C252.455521,164.584869 253.473160,165.561752 253.490540,167.094986 
	C253.510925,168.896271 252.324783,169.710602 250.692383,170.049652 
	C248.779190,170.446991 246.672684,169.673889 244.489151,171.264221 
	C246.792770,179.374908 249.399506,187.585632 249.649948,196.286896 
	C249.827789,202.465622 249.494278,208.600098 248.809341,214.714828 
	C248.577148,216.787628 248.046112,219.475266 245.090485,219.034012 
	C242.494751,218.646469 242.656021,216.157318 242.805389,214.177673 
	C243.582306,203.881088 243.745071,193.635971 241.776474,183.409454 
	C241.038116,179.573700 239.257874,176.208694 238.004959,172.611542 
	C237.443756,171.000275 236.158463,170.499771 234.520691,170.279236 
	C221.151413,168.479126 220.208023,169.310303 220.339554,182.564850 
	C220.407120,189.374420 220.894714,196.232498 218.604187,203.252197 
z"/>
<path fill="#000000" opacity="1.000000" stroke="none" 
	d="
M162.242081,249.279037 
	C159.252762,248.182693 157.507263,249.989105 155.524796,251.148651 
	C148.574203,255.214142 141.527084,258.448181 133.564087,253.554504 
	C132.273773,252.761536 130.994766,252.036911 130.148148,250.725800 
	C129.259216,249.349121 128.817627,247.971939 130.216965,246.690582 
	C131.348419,245.654556 132.724976,245.590378 133.868820,246.531845 
	C141.031036,252.426941 147.742203,249.486435 153.955597,245.097702 
	C157.584702,242.534332 160.448578,241.707504 164.787827,243.691589 
	C171.392853,246.711655 178.399445,246.434494 185.124084,243.325226 
	C186.484207,242.696350 187.808853,241.990494 189.171188,241.366653 
	C190.902313,240.573898 192.509018,240.726135 193.486572,242.498825 
	C194.430069,244.209808 193.263229,245.511597 192.001846,246.267044 
	C185.946060,249.893799 179.608826,252.868073 172.280533,251.774475 
	C169.006042,251.285828 165.822052,250.190872 162.242081,249.279037 
z"/>
<path fill="#000000" opacity="1.000000" stroke="none" 
	d="
M78.292496,234.015747 
	C80.624298,233.083282 82.579018,232.161484 84.609352,231.457855 
	C86.620934,230.760712 88.770851,230.673050 89.676895,233.046631 
	C90.630844,235.545685 88.747696,236.574799 86.778152,237.377716 
	C82.637558,239.065689 78.504036,240.771332 74.377548,242.493530 
	C69.167564,244.667892 68.034622,243.906754 67.875816,238.098801 
	C67.853699,237.289658 67.774651,236.482071 67.722694,235.685211 
	C65.473640,234.437622 63.792294,235.910660 61.990654,236.482162 
	C60.583954,236.928391 59.320534,236.851974 58.536579,235.446640 
	C57.653687,233.863922 58.126026,232.411011 59.620586,231.625671 
	C62.698544,230.008362 65.801598,228.363541 69.059036,227.185516 
	C71.969139,226.133133 73.699715,227.682983 74.475288,230.632919 
	C74.923180,232.336472 74.691170,235.072571 78.292496,234.015747 
z"/>
<path fill="#000000" opacity="1.000000" stroke="none" 
	d="
M232.105759,227.015366 
	C237.544373,224.123672 237.953369,224.453873 239.786469,233.055756 
	C242.544052,232.048996 244.223526,229.720642 246.400589,228.114029 
	C247.970825,226.955200 249.688171,226.150497 251.251633,227.978958 
	C252.684952,229.655212 251.634903,231.154251 250.367065,232.310440 
	C247.059631,235.326691 243.717453,238.311722 240.264496,241.158020 
	C238.907883,242.276291 237.358276,243.664703 235.341080,242.765961 
	C233.228760,241.824814 233.728455,239.729675 233.525116,237.968262 
	C233.434326,237.181808 233.273453,236.403458 233.173615,235.798523 
	C231.462143,235.076645 230.742691,236.192062 229.858307,236.861755 
	C228.284286,238.053650 226.519806,238.945618 225.057877,237.038895 
	C223.645874,235.197311 224.938828,233.555222 226.280121,232.247665 
	C228.060959,230.511597 229.970490,228.907547 232.105759,227.015366 
z"/>
<path fill="#000000" opacity="1.000000" stroke="none" 
	d="
M145.632019,220.006302 
	C149.679413,219.890427 153.299927,219.821915 156.916901,219.906052 
	C158.691971,219.947311 160.199554,220.677948 160.361343,222.723602 
	C160.520203,224.731995 159.234558,225.717728 157.466248,226.116028 
	C153.924713,226.913681 150.358185,227.616089 146.713364,226.868866 
	C145.055695,226.529007 143.485367,225.919159 143.024490,224.037735 
	C142.552460,222.110764 143.543167,220.905411 145.632019,220.006302 
z"/>
</svg>